<svg xmlns="http://www.w3.org/2000/svg" width="128.299" height="128.417" viewBox="0 0 128.299 128.417"><g transform="translate(-143 -138)"><g transform="translate(143 138)"><g transform="translate(0 8.921)"><path d="M159.074,160.485H134.781A35.5,35.5,0,0,1,82.562,188.1l-.1.152L68.895,208.173a59.706,59.706,0,0,0,90.179-47.688Z" transform="translate(-39.692 -97.104)" fill="#e0e0e0"/><path d="M23.639,138.1a59.676,59.676,0,0,0,23.2,47.229L60.4,165.407l.11-.161a35.45,35.45,0,0,1-8.389-43.989l-.152-.1-19.939-13.54A59.367,59.367,0,0,0,23.639,138.1Z" transform="translate(-23.639 -78.35)" fill="#e0e0e0"/><path d="M125.77,118.377h24.108A59.723,59.723,0,0,0,42.969,85.517L62.906,99.056l.161.109a35.506,35.506,0,0,1,62.518,19.213Z" transform="translate(-30.496 -62.263)" fill="#e0e0e0"/></g><g transform="translate(1.085 0)"><path d="M169.64,153.1H143.754a37.834,37.834,0,0,1-55.645,29.424l-.11.162-14.454,21.23a63.623,63.623,0,0,0,96.1-50.816Z" transform="translate(-42.426 -85.565)" fill="#304c95"/><path d="M25.32,129.248a63.594,63.594,0,0,0,24.719,50.328l14.452-21.228.117-.171a37.775,37.775,0,0,1-8.94-46.874l-.162-.11L34.26,96.765A63.26,63.26,0,0,0,25.32,129.248Z" transform="translate(-25.32 -65.581)" fill="#7ea500"/><path d="M134.151,108.234h25.69A63.64,63.64,0,0,0,45.919,73.218L67.164,87.645l.172.116a37.835,37.835,0,0,1,66.619,20.473Z" transform="translate(-32.627 -48.438)" fill="#1fadab"/></g><g transform="translate(53.796 106.373)"><path d="M108.005,215.751l2.645.241a5.185,5.185,0,0,1,2.1.552,2.147,2.147,0,0,1,.994,1.2,4.973,4.973,0,0,1,.147,2l-.363,3.981a5.3,5.3,0,0,1-.505,1.988,2.166,2.166,0,0,1-1.185,1.035,4.879,4.879,0,0,1-2.131.179l-2.7-.247Zm1.815,9.622a1.561,1.561,0,0,0,.865-.1.813.813,0,0,0,.4-.5,5.269,5.269,0,0,0,.166-1.005l.413-4.521a3.786,3.786,0,0,0,0-.945.762.762,0,0,0-.31-.505,1.755,1.755,0,0,0-.828-.232l-.467-.043-.714,7.813Z" transform="translate(-107.007 -214.16)" fill="#fff"/><path d="M123.865,216.248l2.446-.2,2.994,10.765-2.031.168-.6-2.37-1.711.142-.214,2.439-2.073.172Zm2.48,7-1.021-4.348-.276,4.456Z" transform="translate(-112.565 -214.264)" fill="#fff"/><path d="M137.026,220.675l-3.519-6,2.029-.456,1.984,3.513.2-4,1.976-.443-.591,6.924.952,4.245-2.08.467Z" transform="translate(-116.407 -213.285)" fill="#fff"/></g></g></g></svg>