<svg xmlns="http://www.w3.org/2000/svg" xmlns:xlink="http://www.w3.org/1999/xlink" width="207.81" height="52.867" viewBox="0 0 207.81 52.867"><defs><linearGradient id="a" x1="2.097" y1="-5.342" x2="0.955" y2="-3.781" gradientUnits="objectBoundingBox"><stop offset="0" stop-color="#0d72b9"/><stop offset="1" stop-color="#006838"/></linearGradient><linearGradient id="b" x1="0.771" y1="-8.217" x2="1.585" y2="-7.934" gradientUnits="objectBoundingBox"><stop offset="0" stop-color="#29a9e1"/><stop offset="1" stop-color="#90c23e"/></linearGradient><linearGradient id="c" x1="0.866" y1="-3.358" x2="2.003" y2="-3.358" xlink:href="#b"/><linearGradient id="d" x1="1.7" y1="-7.9" x2="1.089" y2="-6.072" xlink:href="#a"/><linearGradient id="e" x1="0.62" y1="-3.001" x2="1.633" y2="-3.001" gradientUnits="objectBoundingBox"><stop offset="0" stop-color="#29a9e1"/><stop offset="1" stop-color="#91da41"/></linearGradient></defs><g transform="translate(-145.638 -148.323)"><g transform="translate(195.312 167.267)"><path d="M228.582,180.2h-17.8v3.442h17.8v3.547H206.335v-15.57h22.247Zm-4.45-3.02v-2.814H210.786v2.814Z" transform="translate(-206.335 -171.499)" fill="#f78e1e"/><path d="M254.081,187.166H237.558v-15.7h13.216v5.784h3.306Zm-13.219-12.892v2.981h6.609v-2.981Zm0,5.834v4.617h9.912v-4.617Z" transform="translate(-212.005 -171.471)" fill="#90c23e"/><path d="M263.427,185.642h9.913v-9.124h3.306v11.565H260.123V176.518h3.3Z" transform="translate(-216.103 -172.388)" fill="#90c23e"/><path d="M299.212,181.071v7.012H282.689v-2.44h13.219v-2.335H282.689v-6.789h16.523v2.958H286v1.594Z" transform="translate(-220.201 -172.388)" fill="#90c23e"/><path d="M308.561,188.083h-3.3V176.518h3.3Z" transform="translate(-224.3 -172.388)" fill="#90c23e"/><path d="M308.561,174.372h-3.3v-2.747h3.3Z" transform="translate(-224.3 -171.499)" fill="#90c23e"/><path d="M324.89,179.823h-9.915v8.26h-3.3V176.518h16.522v11.565h-3.3Z" transform="translate(-225.465 -172.388)" fill="#90c23e"/><path d="M350.759,183.307H337.541v2.335h13.218v2.44H334.237V176.518h16.522Zm-3.3-2.237v-1.548h-9.913v1.548Z" transform="translate(-229.563 -172.388)" fill="#90c23e"/><path d="M373.328,181.071v7.012H356.806v-2.44h13.215v-2.335H356.806v-6.789h16.522v2.958H360.111v1.594Z" transform="translate(-233.662 -172.388)" fill="#90c23e"/><path d="M395.894,181.071v7.012H379.371v-2.44h13.218v-2.335H379.371v-6.789h16.523v2.958H382.676v1.594Z" transform="translate(-237.759 -172.388)" fill="#90c23e"/></g><g transform="translate(145.638 148.323)"><path d="M176.514,151.094s-22.353,17.709-29.367,23.065c0-3.125.895-9.9,10.507-16.753S173.353,151.53,176.514,151.094Z" transform="translate(-145.912 -148.826)" fill="url(#a)"/><g transform="translate(10.334 29.753)"><path d="M188.672,184.678c-4.126,1.76-18.212,7.536-30.407,9.935a21.049,21.049,0,0,0,30.407-9.935Z" transform="translate(-158.265 -184.678)" fill="url(#b)"/></g><path d="M146.943,173.421s1.58-18.848,29.3-22.831a20.974,20.974,0,0,0-14.4-1.682,21.291,21.291,0,0,0-15.594,25.754,21.769,21.769,0,0,0,1.129,3.41l1.484-1.3Z" transform="translate(-145.638 -148.323)" fill="url(#c)"/><path d="M153.652,189.688c-.472.749,23.2-1.009,35.842-15.112C186.079,173.389,166.036,170.006,153.652,189.688Z" transform="translate(-147.092 -152.911)" fill="url(#d)"/><g transform="translate(14.634 37.25)"><path d="M176.357,205.193a25.559,25.559,0,0,1-3.481.6.87.87,0,1,1-.176-1.732c6.172-.624,10.849-3.406,14.982-6.3,1.364-.961,1.662-1.63,1.629-1.847-.015-.09-.154-.188-.351-.247a1.986,1.986,0,0,0-1.912.485c-9.067,8.428-22.169,7.6-22.717,7.562a.87.87,0,1,1,.121-1.737c.128.011,12.91.8,21.376-7.073a3.725,3.725,0,0,1,3.658-.9,2.085,2.085,0,0,1,1.545,1.643c.174,1.128-.617,2.315-2.349,3.535A36.049,36.049,0,0,1,176.357,205.193Z" transform="translate(-163.52 -193.839)" fill="#90c23e"/></g><g transform="translate(26.731 42.316)"><path d="M180.144,208.481c-.3.074-.581.13-.844.168a.87.87,0,1,1-.254-1.721c1.933-.283,5.6-1.85,8.937-3.8,1.05-.617,1.068-.971,1.066-.976,0-.11-.259-.349-.5-.464a.875.875,0,0,1-.405-1.16.864.864,0,0,1,1.154-.412,2.544,2.544,0,0,1,1.486,1.954c.044.927-.6,1.784-1.925,2.563A37.232,37.232,0,0,1,180.144,208.481Z" transform="translate(-178.301 -200.03)" fill="#90c23e"/></g><path d="M189.349,204.421a7.427,7.427,0,0,1-.128,2.715,4,4,0,0,0-.165,1.931s-5.009,2.365-5.654,2.309-2.225-3.116-2.225-3.116Z" transform="translate(-152.092 -158.511)" fill="#90c23e"/><g transform="translate(0.555 4.614)"><path d="M180.689,154.495c-.218-.185-.441-.358-.661-.534a53.4,53.4,0,0,0-33.711,21.5c.02.077.029.149.048.224a21.441,21.441,0,0,0,5.957,10.436c3.76-5.455,17.92-18.2,35.842-15.112a21.6,21.6,0,0,0-7.474-16.516Z" transform="translate(-146.316 -153.961)" fill="url(#e)"/></g></g><g transform="translate(195.314 185.779)"><path d="M211.393,196.012v2.882h-5.056v-.783h4.047v-1.445h-4.047v-2.574h5.056v.858h-4.045v1.062Z" transform="translate(-206.337 -194.091)" fill="#fff"/><path d="M221.24,198.893h-5.055v-4.8h5.055ZM217.2,195.1v2.779h3.032V195.1Z" transform="translate(-208.125 -194.091)" fill="#fff"/><path d="M226.033,198.893v-4.8h1.012v3.791h4.042v1.012Z" transform="translate(-209.914 -194.091)" fill="#fff"/><path d="M240.935,198.893h-5.057v-4.8h1.012v3.791h3.033v-3.791h1.012Z" transform="translate(-211.702 -194.091)" fill="#fff"/><path d="M250.782,195.1h-2.023v3.791h-1.012V195.1h-2.022v-1.012h5.057Z" transform="translate(-213.49 -194.091)" fill="#fff"/><path d="M256.581,198.893H255.57v-4.8h1.011Z" transform="translate(-215.278 -194.091)" fill="#fff"/><path d="M265.53,198.893h-5.059v-4.8h5.059Zm-4.047-3.791v2.779h3.035V195.1Z" transform="translate(-216.168 -194.091)" fill="#fff"/><path d="M275.376,198.893h-1.012l-3.035-3.348v3.348h-1.012v-4.8h1.012l3.035,3.348v-3.348h1.012Z" transform="translate(-217.956 -194.091)" fill="#fff"/><path d="M285.223,196.012v2.882h-5.057v-.783h4.044v-1.445h-4.044v-2.574h5.057v.858h-4.045v1.062Z" transform="translate(-219.745 -194.091)" fill="#fff"/><path d="M300.874,195.1v2.779h4.043v1.012h-5.054v-4.8h5.054V195.1Z" transform="translate(-223.322 -194.091)" fill="#fff"/><path d="M314.763,198.893h-5.056v-4.8h5.056Zm-4.045-3.791v2.779h3.031V195.1Z" transform="translate(-225.11 -194.091)" fill="#fff"/><path d="M324.609,196.874H323.6l1.012,2.02h-1.2l-1.014-2.02h-1.832v2.02h-1.009v-4.8h5.056Zm-4.047-2.088v1.363H323.6v-1.363Z" transform="translate(-226.898 -194.091)" fill="#fff"/><path d="M329.4,194.091h5.059v2.783H330.41v2.02H329.4Zm4.046,2.057v-1.363H330.41v1.363Z" transform="translate(-228.686 -194.091)" fill="#fff"/><path d="M344.3,198.893h-5.059v-4.8H344.3Zm-4.047-3.791v2.779h3.035V195.1Z" transform="translate(-230.474 -194.091)" fill="#fff"/><path d="M354.147,196.874h-1.012l1.012,2.02h-1.2l-1.01-2.02H350.1v2.02h-1.012v-4.8h5.056Zm-4.044-2.088v1.363h3.033v-1.363Z" transform="translate(-232.262 -194.091)" fill="#fff"/><path d="M358.939,194.091h5.054v4.8h-1.012v-2.02h-3.031v2.02h-1.012Zm1.012.695v1.363h3.031v-1.363Z" transform="translate(-234.051 -194.091)" fill="#fff"/><path d="M373.84,195.1h-2.026v3.791h-1.009V195.1h-2.021v-1.012h5.056Z" transform="translate(-235.838 -194.091)" fill="#fff"/><path d="M379.642,198.893H378.63v-4.8h1.012Z" transform="translate(-237.627 -194.091)" fill="#fff"/><path d="M388.592,198.893h-5.056v-4.8h5.056Zm-4.044-3.791v2.779h3.03V195.1Z" transform="translate(-238.517 -194.091)" fill="#fff"/><path d="M398.437,198.893h-1.012l-3.033-3.348v3.348h-1.012v-4.8h1.012l3.033,3.348v-3.348h1.012Z" transform="translate(-240.305 -194.091)" fill="#fff"/></g><g transform="translate(195.48 151.151)"><path d="M240.311,151.781l8.54,0a2.2,2.2,0,0,1,2.192,2.195v8.54a2.2,2.2,0,0,1-2.192,2.188h-8.54a2.2,2.2,0,0,1-2.191-2.188v-8.54a2.2,2.2,0,0,1,2.191-2.192" transform="translate(-212.275 -151.778)" fill="#f78e1e" fill-rule="evenodd"/><path d="M233.06,151.782h-8.54a2.2,2.2,0,0,0-2.193,2.192v8.54a2.2,2.2,0,0,0,2.193,2.188h8.54a2.2,2.2,0,0,0,2.192-2.188v-8.54a2.2,2.2,0,0,0-2.192-2.192" transform="translate(-209.407 -151.779)" fill="#a0c83a" fill-rule="evenodd"/><path d="M208.645,151.782h8.71a2.108,2.108,0,0,1,2.1,2.1V162.6a2.11,2.11,0,0,1-2.1,2.1h-8.71a2.11,2.11,0,0,1-2.1-2.1v-8.713a2.108,2.108,0,0,1,2.1-2.1" transform="translate(-206.54 -151.779)" fill="#086db3" fill-rule="evenodd"/><path d="M210,163.227v-9.311h2.128v7.358h5.927v1.953Z" transform="translate(-207.168 -152.166)" fill="#fff"/><path d="M233.27,158.615a2.417,2.417,0,0,0,.052-3.85,4.184,4.184,0,0,0-2.787-.867h-6.672v9.313h6.672a4.265,4.265,0,0,0,2.787-.841,2.322,2.322,0,0,0-.052-3.755m-2.491,2.757h-4.754v-5.788h4.754a1.092,1.092,0,1,1,0,2.181h-3.518v1.542h3.518c1.748,0,1.784,2.065,0,2.065" transform="translate(-209.686 -152.163)" fill="#fff"/><path d="M246.112,157.78h-3.055s-1.317-.02-1.317-.952.892-1.1,1.317-1.1h6.487V153.9H243.3a4.235,4.235,0,0,0-2.783.844,2.321,2.321,0,0,0-.934,1.851,5.168,5.168,0,0,0,.051.685c.134.576.638,1.624,2.51,1.963.243.034.516.066.823.092a1.716,1.716,0,0,0,.185.01H246.4a1.892,1.892,0,0,1,.349.03c.378.058,1.074.254,1.074.931,0,.932-.887,1.1-1.315,1.1H239.6v1.837h6.668a4.264,4.264,0,0,0,2.79-.839,2.327,2.327,0,0,0,.931-1.851c0-.136,0-.294-.007-.459-.058-.529-.491-2.314-3.87-2.314" transform="translate(-212.54 -152.163)" fill="#fff"/></g></g></svg>