<svg xmlns="http://www.w3.org/2000/svg" width="32.33" height="32.332" viewBox="0 0 32.33 32.332"><path d="M193.726,598.281a16.154,16.154,0,0,0,0-10.639.99.99,0,0,0-.05-.145,16.165,16.165,0,0,0-30.428,0,1.421,1.421,0,0,0-.053.145,16.2,16.2,0,0,0,0,10.639c.015.048.033.1.053.145a16.165,16.165,0,0,0,30.428,0,1.108,1.108,0,0,0,.05-.145Zm-15.264,8.529c-.616,0-1.609-1.114-2.438-3.6a25.57,25.57,0,0,1-.956-4.084h6.785a25.3,25.3,0,0,1-.953,4.084c-.831,2.49-1.822,3.6-2.438,3.6ZM174.788,596.8c-.113-1.234-.17-2.525-.17-3.844s.058-2.608.17-3.842h7.348c.11,1.234.17,2.523.17,3.842s-.06,2.61-.17,3.844Zm-10.173-3.844a13.715,13.715,0,0,1,.543-3.842h7.305c-.108,1.261-.163,2.553-.163,3.842s.055,2.583.163,3.844h-7.305a13.734,13.734,0,0,1-.543-3.844Zm13.847-13.847c.616,0,1.607,1.114,2.438,3.6a25.31,25.31,0,0,1,.953,4.084h-6.785a25.512,25.512,0,0,1,.956-4.084c.828-2.49,1.822-3.6,2.438-3.6Zm6,10.006h7.308a13.868,13.868,0,0,1,0,7.686h-7.308c.11-1.261.163-2.553.163-3.844s-.053-2.58-.163-3.842Zm6.4-2.317h-6.667a22.292,22.292,0,0,0-2.11-7.208,13.916,13.916,0,0,1,8.777,7.208Zm-16.02-7.208a22.288,22.288,0,0,0-2.112,7.208h-6.667a13.92,13.92,0,0,1,8.779-7.208Zm-8.779,19.528h6.667a22.286,22.286,0,0,0,2.112,7.208,13.92,13.92,0,0,1-8.779-7.208Zm16.022,7.208a22.29,22.29,0,0,0,2.11-7.208h6.667a13.915,13.915,0,0,1-8.777,7.208Zm0,0" transform="translate(-162.297 -576.796)" fill="#82d42d"/></svg>