<svg xmlns="http://www.w3.org/2000/svg" width="32px" height="32px" viewBox="0 0 29.982 24.303"><path d="M136.737,581.841a3.962,3.962,0,0,1-1.164.15l.023-.123a9.555,9.555,0,0,0,2.332-2.668c.088-.3-.015-.4-.015-.413l-1.952.828-1.632.736h0a6.5,6.5,0,0,0-4.738-1.952c-3.394,0-6.147,2.4-6.147,5.368a7.991,7.991,0,0,0,.253,2.027c0,.155,0-.158,0,0a19.172,19.172,0,0,1-7.481-2.22c-4.918-2.493-5.228-4.22-5.228-4.22-.771.821-1.171,3.539-.388,5.669a7.074,7.074,0,0,0,2.225,2.588h0a5.257,5.257,0,0,1-1.577-.26,3.5,3.5,0,0,1-1.114-.543c-.478,1.171.483,3.261,2.15,4.762a8.811,8.811,0,0,0,2.74,1.422l-2.768.078c-.155,2.693,5.644,4.29,5.644,4.29h0a9.467,9.467,0,0,1-5.786,2.1,11.086,11.086,0,0,1-3.158-.463,15.068,15.068,0,0,0,10.286,3.684c10.354-.546,16.2-9.445,16.478-18.187l.013.018a7.182,7.182,0,0,0,1.522-1.279,10.684,10.684,0,0,0,1.684-2.25S137.387,581.661,136.737,581.841Z" transform="translate(-108.957 -578.4)" fill="#5cb7f6"/></svg>