<svg xmlns="http://www.w3.org/2000/svg" width="64px" height="64px" viewBox="0 0 16.912 15.221"><path d="M10.456,6.382V3H2V18.221H18.912V6.382ZM5.382,16.529H3.691V14.838H5.382Zm0-3.382H3.691V11.456H5.382Zm0-3.382H3.691V8.074H5.382Zm0-3.382H3.691V4.691H5.382ZM8.765,16.529H7.074V14.838H8.765Zm0-3.382H7.074V11.456H8.765Zm0-3.382H7.074V8.074H8.765Zm0-3.382H7.074V4.691H8.765Zm8.456,10.147H10.456V14.838h1.691V13.147H10.456V11.456h1.691V9.765H10.456V8.074h6.765ZM15.529,9.765H13.838v1.691h1.691Zm0,3.382H13.838v1.691h1.691Z" transform="translate(-2 -3)" fill="#1fadab"/></svg>