<svg xmlns="http://www.w3.org/2000/svg" width="64px" height="64px" viewBox="0 0 20.717 13.529"><path d="M11.993,5H1.846A.848.848,0,0,0,1,5.846V15.993a.848.848,0,0,0,.846.846H11.993a.848.848,0,0,0,.846-.846V5.846A.848.848,0,0,0,11.993,5ZM6.919,7.325a1.9,1.9,0,1,1-1.9,1.9A1.905,1.905,0,0,1,6.919,7.325Zm3.805,7.822H3.114v-.634c0-1.268,2.537-1.9,3.805-1.9s3.805.634,3.805,1.9Z" transform="translate(-1 -4.154)" fill="#fff"/><path d="M16.415,10.765A3.805,3.805,0,0,0,14.3,7.357v6.807A3.783,3.783,0,0,0,16.415,10.765ZM5,8.228V13.3H8.382l4.228,4.228V4L8.382,8.228Z" transform="translate(4.301 -4)" fill="#fff"/></svg>