<svg xmlns="http://www.w3.org/2000/svg" width="64px" height="64px" viewBox="0 0 14.826 16.473"><path d="M16.179,2.647H12.736a2.461,2.461,0,0,0-4.646,0H4.647A1.652,1.652,0,0,0,3,4.295V15.826a1.652,1.652,0,0,0,1.647,1.647H16.179a1.652,1.652,0,0,0,1.647-1.647V4.295A1.652,1.652,0,0,0,16.179,2.647Zm-5.766,0a.824.824,0,1,1-.824.824A.826.826,0,0,1,10.413,2.647Zm0,3.295A2.471,2.471,0,1,1,7.942,8.413,2.468,2.468,0,0,1,10.413,5.942Zm4.942,9.884H5.471V14.673c0-1.647,3.295-2.553,4.942-2.553s4.942.906,4.942,2.553Z" transform="translate(-3 -1)" fill="#fff"/></svg>