<svg xmlns="http://www.w3.org/2000/svg" width="72.756" height="72.756" viewBox="0 0 72.756 72.756"><path d="M73.755,20.842V1H53.913V7.614H20.842V1H1V20.842H7.614V53.913H1V73.755H20.842V67.141H53.913v6.614H73.755V53.913H67.141V20.842ZM7.614,7.614h6.614v6.614H7.614Zm6.614,59.527H7.614V60.527h6.614Zm39.685-6.614H20.842V53.913H14.228V20.842h6.614V14.228H53.913v6.614h6.614V53.913H53.913Zm13.228,6.614H60.527V60.527h6.614ZM60.527,14.228V7.614h6.614v6.614ZM43.1,43.992H31.557l-2.414,6.614H23.786L35.03,20.842h4.63L50.937,50.606H45.546L43.1,43.992ZM33.045,39.825h8.631l-4.3-12.666L33.045,39.825Z" transform="translate(-1 -1)"/></svg>