<svg xmlns="http://www.w3.org/2000/svg" width="76.387" height="72.567" viewBox="0 0 76.387 72.567"><ellipse cx="7.639" cy="7.639" rx="7.639" ry="7.639" transform="translate(11.458 3.819)"/><path d="M36.947,37.374a18.35,18.35,0,0,1-3.132-2.75L28.468,28.7a8.194,8.194,0,0,0-2.635-1.91,8.5,8.5,0,0,0-3.667-.878h-.115a8.606,8.606,0,0,0-8.594,8.594v2.865H2V67.929a7.661,7.661,0,0,0,7.639,7.639h61.11a7.661,7.661,0,0,0,7.639-7.639V37.374ZM21.1,67.929H13.458V45.013H21.1Zm15.277,0H28.735V45.013h7.639Zm15.277,0H44.013V45.013h7.639Zm15.277,0H59.29V45.013h7.639ZM65.592,13.923l-.267-.267a9.647,9.647,0,0,1-2.559-8.4L63.11,3H55.891l-.229,1.642A16.4,16.4,0,0,0,60.627,18.85l.267.229a9.647,9.647,0,0,1,2.559,8.4l-.42,2.253h7.295l.229-1.642A16.181,16.181,0,0,0,65.592,13.923Zm-15.277,0-.267-.267a9.647,9.647,0,0,1-2.559-8.4L47.832,3H40.614l-.229,1.642A16.4,16.4,0,0,0,45.35,18.85l.267.229a9.647,9.647,0,0,1,2.559,8.4l-.42,2.253h7.295l.229-1.642A16.181,16.181,0,0,0,50.315,13.923Z" transform="translate(-2 -3)"/></svg>