<svg xmlns="http://www.w3.org/2000/svg" width="68.748" height="68.748" viewBox="0 0 68.748 68.748"><path d="M48.832,25.916H25.916V48.832H48.832ZM41.193,41.193H33.555V33.555h7.639Zm30.555-7.639V25.916H64.11V18.277a7.661,7.661,0,0,0-7.639-7.639H48.832V3H41.193v7.639H33.555V3H25.916v7.639H18.277a7.661,7.661,0,0,0-7.639,7.639v7.639H3v7.639h7.639v7.639H3v7.639h7.639v7.639a7.661,7.661,0,0,0,7.639,7.639h7.639v7.639h7.639V64.109h7.639v7.639h7.639V64.109h7.639a7.661,7.661,0,0,0,7.639-7.639V48.832h7.639V41.193H64.11V33.555ZM56.471,56.471H18.277V18.277H56.471Z" transform="translate(-3 -3)"/></svg>