<svg xmlns="http://www.w3.org/2000/svg" width="84.025" height="53.471" viewBox="0 0 84.025 53.471"><path d="M58.29,27.916A11.458,11.458,0,1,0,46.832,16.458,11.41,11.41,0,0,0,58.29,27.916Zm-30.555,0A11.458,11.458,0,1,0,16.277,16.458,11.41,11.41,0,0,0,27.735,27.916Zm0,7.639C18.836,35.555,1,40.023,1,48.922v9.548H54.471V48.922C54.471,40.023,36.635,35.555,27.735,35.555Zm30.555,0c-1.108,0-2.368.076-3.7.191,4.43,3.208,7.524,7.524,7.524,13.177v9.548H85.026V48.922C85.026,40.023,67.189,35.555,58.29,35.555Z" transform="translate(-1 -5)"/></svg>