<?xml version="1.0"?>
<!--Icons from directory ""-->
<svg xmlns="http://www.w3.org/2000/svg" width="66" height="792" viewBox="0 0 66 792"><svg width="66" height="66" viewBox="-1 -1 17.221 19.377" id="a" y="0"><path d="M7.61 8.075a11.122 11.122 0 0 0-7.61-3v9.3a11.122 11.122 0 0 1 7.61 3 11.161 11.161 0 0 1 7.61-3v-9.3a11.122 11.122 0 0 0-7.61 3zm0-3a2.537 2.537 0 1 0-2.536-2.538A2.533 2.533 0 0 0 7.61 5.074z" fill="#fff"/></svg><svg width="66" height="66" viewBox="-1 -1 17.221 19.377" id="b" y="66"><path d="M7.61 8.075a11.122 11.122 0 0 0-7.61-3v9.3a11.122 11.122 0 0 1 7.61 3 11.161 11.161 0 0 1 7.61-3v-9.3a11.122 11.122 0 0 0-7.61 3zm0-3a2.537 2.537 0 1 0-2.536-2.538A2.533 2.533 0 0 0 7.61 5.074z" fill="#1fadab"/></svg><svg width="66" height="66" viewBox="-1 -1 18.912 17.221" id="c" y="132"><path d="M8.456 3.382V0H0v15.221h16.912V3.382zM3.382 13.529H1.691v-1.691h1.691zm0-3.382H1.691V8.456h1.691zm0-3.382H1.691V5.074h1.691zm0-3.382H1.691V1.691h1.691zm3.383 10.146H5.074v-1.691h1.691zm0-3.382H5.074V8.456h1.691zm0-3.382H5.074V5.074h1.691zm0-3.382H5.074V1.691h1.691zm8.456 10.147H8.456v-1.692h1.691v-1.691H8.456V8.456h1.691V6.765H8.456V5.074h6.765zm-1.692-6.765h-1.691v1.691h1.691zm0 3.382h-1.691v1.691h1.691z" fill="#fff"/></svg><svg width="66" height="66" viewBox="-1 -1 18.912 17.221" id="d" y="198"><path d="M8.456 3.382V0H0v15.221h16.912V3.382zM3.382 13.529H1.691v-1.691h1.691zm0-3.382H1.691V8.456h1.691zm0-3.382H1.691V5.074h1.691zm0-3.382H1.691V1.691h1.691zm3.383 10.146H5.074v-1.691h1.691zm0-3.382H5.074V8.456h1.691zm0-3.382H5.074V5.074h1.691zm0-3.382H5.074V1.691h1.691zm8.456 10.147H8.456v-1.692h1.691v-1.691H8.456V8.456h1.691V6.765H8.456V5.074h6.765zm-1.692-6.765h-1.691v1.691h1.691zm0 3.382h-1.691v1.691h1.691z" fill="#1fadab"/></svg><svg width="66" height="66" viewBox="-1 -1 17.221 18.912" id="e" y="264"><path d="M13.529 1.691H9.995a2.527 2.527 0 0 0-4.769 0H1.691A1.7 1.7 0 0 0 0 3.382v11.839a1.7 1.7 0 0 0 1.691 1.691h11.838a1.7 1.7 0 0 0 1.691-1.691V3.382a1.7 1.7 0 0 0-1.691-1.691zm-5.919 0a.846.846 0 1 1-.846.846.848.848 0 0 1 .846-.846zM9.3 13.529H3.382v-1.691H9.3zm2.537-3.382H3.382V8.456h8.456zm0-3.382H3.382V5.074h8.456z" fill="#fff"/></svg><svg width="66" height="66" viewBox="-1 -1 17.221 18.912" id="f" y="330"><path d="M13.529 1.691H9.995a2.527 2.527 0 0 0-4.769 0H1.691A1.7 1.7 0 0 0 0 3.382v11.839a1.7 1.7 0 0 0 1.691 1.691h11.838a1.7 1.7 0 0 0 1.691-1.691V3.382a1.7 1.7 0 0 0-1.691-1.691zm-5.919 0a.846.846 0 1 1-.846.846.848.848 0 0 1 .846-.846zM9.3 13.529H3.382v-1.691H9.3zm2.537-3.382H3.382V8.456h8.456zm0-3.382H3.382V5.074h8.456z" fill="#1fadab"/></svg><svg width="66" height="66" viewBox="-1 -1 22.717 15.529" id="g" y="396"><path d="M10.993.846H.846A.848.848 0 0 0 0 1.692v10.147a.848.848 0 0 0 .846.846h10.147a.848.848 0 0 0 .846-.846V1.692a.848.848 0 0 0-.846-.846zM5.919 3.171a1.9 1.9 0 1 1-1.9 1.9 1.905 1.905 0 0 1 1.9-1.9zm3.805 7.822h-7.61v-.634c0-1.268 2.537-1.9 3.805-1.9s3.805.634 3.805 1.9z" fill="#fff"/><path d="M20.716 6.765a3.805 3.805 0 0 0-2.115-3.408v6.807a3.783 3.783 0 0 0 2.115-3.399zM9.301 4.228V9.3h3.382l4.228 4.228V0l-4.228 4.228z" fill="#fff"/></svg><svg width="66" height="66" viewBox="-1 -1 22.717 15.529" id="h" y="462"><path d="M10.993.846H.846A.848.848 0 0 0 0 1.692v10.147a.848.848 0 0 0 .846.846h10.147a.848.848 0 0 0 .846-.846V1.692a.848.848 0 0 0-.846-.846zM5.919 3.171a1.9 1.9 0 1 1-1.9 1.9 1.905 1.905 0 0 1 1.9-1.9zm3.805 7.822h-7.61v-.634c0-1.268 2.537-1.9 3.805-1.9s3.805.634 3.805 1.9z" fill="#1fadab"/><path d="M20.716 6.765a3.805 3.805 0 0 0-2.115-3.408v6.807a3.783 3.783 0 0 0 2.115-3.399zM9.301 4.228V9.3h3.382l4.228 4.228V0l-4.228 4.228z" fill="#1fadab"/></svg><svg width="66" height="66" viewBox="-1 -1 18.903 15.529" id="i" y="528"><path d="M15.212 0H1.683A1.689 1.689 0 0 0 0 1.691v11.838h15.212a1.7 1.7 0 0 0 1.691-1.691V1.691A1.7 1.7 0 0 0 15.212 0zM3.374 10.147V8.058L9.19 2.241a.419.419 0 0 1 .6 0l1.5 1.5a.419.419 0 0 1 0 .6l-5.828 5.806zm10.147 0H7.179L8.87 8.456h4.651z" fill="#fff"/></svg><svg width="66" height="66" viewBox="-1 -1 18.903 15.529" id="j" y="594"><path d="M15.212 0H1.683A1.689 1.689 0 0 0 0 1.691v11.838h15.212a1.7 1.7 0 0 0 1.691-1.691V1.691A1.7 1.7 0 0 0 15.212 0zM3.374 10.147V8.058L9.19 2.241a.419.419 0 0 1 .6 0l1.5 1.5a.419.419 0 0 1 0 .6l-5.828 5.806zm10.147 0H7.179L8.87 8.456h4.651z" fill="#1fadab"/></svg><svg width="66" height="66" viewBox="-1 -1 14 4" id="k" y="660"><g transform="translate(-21 -85)" fill="#1fadab"><circle cx="1" cy="1" r="1" transform="translate(21 85)"/><circle cx="1" cy="1" r="1" transform="translate(26 85)"/><circle cx="1" cy="1" r="1" transform="translate(31 85)"/></g></svg><svg width="66" height="66" viewBox="-1 -1 10 14" id="l" y="726"><text transform="translate(4 9)" fill="#fff" font-size="12" font-family="Skia-Regular_Bold, Skia"><tspan x="-3.955" y="0">X</tspan></text></svg></svg>
